# xmcd CD database file
#
# Track frame offsets:
#	150
#	24451
#	36709
#	52535
#	70310
#	92378
#	111096
#	121563
#	138958
#	151602
#	168934
#	196593
#	223141
#	245418
#	258762
#	277098
#	301403
#	323867
#
# Disc length: 4615 seconds
#
# Revision: 0
# Processed by: cddbd v1.5.1PL0 Copyright (c) Steve Scherf et al.
# Submitted via: CDex 1.51
#
DISCID=e9120512
DTITLE=Vangelis - Odyssey - The Definitive Collection
DYEAR=2003
DGENRE=New Age
TTITLE0=Pulstar
TTITLE1=Hymn
TTITLE2=Chariots Of Fire
TTITLE3=Missing
TTITLE4=Love Theme From Blade Runner
TTITLE5=End Titles From Blade Runner
TTITLE6=The Tao Of Love
TTITLE7=Theme From Antarctica
TTITLE8=Theme From Cavafy
TTITLE9=Opening Titles From Mutiny On The Bounty
TTITLE10=Conquest Of Paradise
TTITLE11=La Petite Fille De La Mer
TTITLE12=L'enfant
TTITLE13=Anthem - FIFA World Cup 2002
TTITLE14=Celtic Dawn
TTITLE15=Movement 1 From Mythodea
TTITLE16=State Of Independence (Jon and Vangelis) (Bonus Track)
TTITLE17=Deborah (Jon and Vangelis) (Bonus Track)
EXTD=YEAR: 2003
EXTT0=
EXTT1=
EXTT2=
EXTT3=
EXTT4=
EXTT5=
EXTT6=
EXTT7=
EXTT8=
EXTT9=
EXTT10=
EXTT11=
EXTT12=
EXTT13=
EXTT14=
EXTT15=
EXTT16=
EXTT17=
PLAYORDER=
